<svg xmlns="http://www.w3.org/2000/svg" x="0px" y="0px" width="26" height="26" viewBox="0 0 26 26"><g id="surface1"><path style=" " d="M 25.8125 13.769531 C 25.8125 12.660156 24.515625 11.578125 22.777344 11.003906 C 22.695313 10.976563 22.195313 10.75 22.507813 9.796875 L 22.503906 9.796875 C 23.320313 8.960938 23.941406 7.605469 23.941406 6.277344 C 23.941406 4.226563 22.582031 3.15625 21 3.15625 C 19.417969 3.15625 18.0625 4.226563 18.0625 6.277344 C 18.0625 7.613281 18.683594 8.96875 19.503906 9.808594 C 19.824219 10.648438 19.25 10.957031 19.132813 11.003906 C 18.71875 11.152344 18.320313 11.332031 17.957031 11.535156 C 17.957031 11.179688 17.957031 10.875 17.957031 10.769531 C 17.957031 9.660156 16.511719 8.578125 14.773438 8 C 14.695313 7.976563 14.195313 7.75 14.507813 6.796875 L 14.503906 6.796875 C 15.316406 5.957031 15.941406 4.605469 15.941406 3.273438 C 15.941406 1.226563 14.578125 0.15625 12.996094 0.15625 C 11.414063 0.15625 10.0625 1.226563 10.0625 3.273438 C 10.0625 4.613281 10.683594 5.96875 11.503906 6.808594 C 11.820313 7.644531 11.25 7.957031 11.128906 8 C 9.472656 8.601563 8.078125 9.691406 8.078125 10.769531 C 8.078125 10.878906 8.078125 11.191406 8.078125 11.5625 C 7.703125 11.347656 7.292969 11.15625 6.863281 11 C 6.742188 10.957031 6.171875 10.644531 6.492188 9.808594 C 7.3125 8.96875 7.929688 7.613281 7.929688 6.273438 C 7.929688 4.226563 6.578125 3.15625 4.996094 3.15625 C 3.414063 3.15625 2.050781 4.226563 2.050781 6.273438 C 2.050781 7.605469 2.675781 8.960938 3.492188 9.796875 C 3.804688 10.75 3.304688 10.976563 3.222656 11 C 1.484375 11.574219 0.1875 12.660156 0.1875 13.769531 C 0.1875 14.0625 0.1875 18.617188 0.1875 18.90625 C 0.1875 18.917969 0.191406 18.925781 0.191406 18.9375 C 0.191406 18.957031 0.1875 18.976563 0.1875 19 C 0.1875 21.78125 3.332031 24.175781 7.832031 25.230469 L 7.832031 23.675781 C 7.832031 22.40625 9.449219 21.25 11.046875 20.671875 C 11.046875 20.671875 11.21875 20.601563 11.300781 20.417969 C 11.371094 20.265625 11.367188 20.074219 11.285156 19.847656 C 10.390625 18.910156 9.8125 17.476563 9.8125 16.179688 C 9.8125 13.851563 11.414063 12.8125 13 12.8125 C 14.589844 12.8125 16.191406 13.851563 16.191406 16.179688 C 16.191406 17.460938 15.621094 18.886719 14.730469 19.828125 C 14.558594 20.394531 14.722656 20.621094 14.855469 20.671875 C 16.402344 21.183594 18.207031 22.277344 18.207031 23.675781 L 18.207031 25.21875 C 22.6875 24.15625 25.8125 21.773438 25.8125 18.996094 C 25.8125 18.976563 25.804688 18.957031 25.804688 18.9375 C 25.804688 18.925781 25.8125 18.917969 25.8125 18.90625 C 25.8125 18.621094 25.8125 14.0625 25.8125 13.769531 Z "></path></g></svg>
