<svg xmlns="http://www.w3.org/2000/svg" x="0px" y="0px" width="26" height="26" viewBox="0 0 26 26"><g id="surface1"><path style=" " d="M 3 0 C 1.347656 0 0 1.347656 0 3 L 0 23 C 0 24.652344 1.347656 26 3 26 L 14 26 C 15.652344 26 17 24.652344 17 23 L 17 3 C 17 1.347656 15.652344 0 14 0 Z M 16.625 0 C 17.464844 0.734375 18 1.800781 18 3 L 18 23 C 18 24.199219 17.464844 25.265625 16.625 26 L 23 24 C 24.53125 23.296875 26 22.65625 26 21 L 26 5 C 26 3.34375 24.578125 2.625 23 2 Z M 3 2 L 14 2 C 14.550781 2 15 2.449219 15 3 L 15 12 C 15 12.550781 14.550781 13 14 13 L 3 13 C 2.449219 13 2 12.550781 2 12 L 2 3 C 2 2.449219 2.449219 2 3 2 Z M 4 3 C 3.449219 3 3 3.449219 3 4 L 3 6 C 3 6.550781 3.449219 7 4 7 L 13 7 C 13.550781 7 14 6.550781 14 6 L 14 4 C 14 3.449219 13.550781 3 13 3 Z M 4 8 C 3.449219 8 3 8.449219 3 9 L 3 11 C 3 11.550781 3.449219 12 4 12 L 13 12 C 13.550781 12 14 11.550781 14 11 L 14 9 C 14 8.449219 13.550781 8 13 8 Z M 8.5 16.9375 C 9.363281 16.9375 10.0625 17.636719 10.0625 18.5 C 10.0625 19.363281 9.363281 20.0625 8.5 20.0625 C 7.636719 20.0625 6.9375 19.363281 6.9375 18.5 C 6.9375 17.636719 7.636719 16.9375 8.5 16.9375 Z "></path></g></svg>
