<svg xmlns="http://www.w3.org/2000/svg" x="0px" y="0px" width="26" height="26" viewBox="0 0 26 26"><g id="surface1"><path style=" " d="M 12.1875 -0.03125 C 10.472656 -0.03125 9.097656 1.3125 9 3 L 5 3 C 4.398438 3 4 3.398438 4 4 L 3.59375 4 C 2.695313 4 2 4.695313 2 5.59375 L 2 6 L 24 6 L 24 5.59375 C 24 4.695313 23.304688 4 22.40625 4 L 22 4 C 22 3.398438 21.601563 3 21 3 L 17 3 C 16.902344 1.3125 15.527344 -0.03125 13.8125 -0.03125 Z M 12.1875 2.03125 L 13.8125 2.03125 C 14.367188 2.03125 14.839844 2.464844 14.9375 3 L 11.0625 3 C 11.160156 2.464844 11.632813 2.03125 12.1875 2.03125 Z M 3.09375 7 L 6 26 L 20 26 L 22.90625 7 Z M 5.90625 10 L 7 10 L 8.6875 23 L 7.6875 23 Z M 10.1875 10 L 11.3125 10 L 12 23 L 10.8125 23 Z M 14.6875 10 L 15.8125 10 L 15.1875 23 L 14.09375 23 Z M 19 10 L 20 10 L 18.3125 23 L 17.3125 23 Z "></path></g></svg>
